<svg xmlns="http://www.w3.org/2000/svg" width="462.821" height="124.691" viewBox="0 0 462.821 124.691"><g fill="#3669B1"><path d="M115.711 101.958c.284-.812.568-1.605.855-2.383.091-.246.26-.49.517-.747l.216-.235a28.09 28.09 0 0 0 5.113-8.907c1.124-3.182 1.706-6.18 1.732-8.914l.987-10.987.016-.358c0-.993-.206-2.026-.631-3.159a15.949 15.949 0 0 0-1.255-2.597 21.967 21.967 0 0 0-1.543-2.237 25.762 25.762 0 0 0-.968-1.161 41.301 41.301 0 0 1-1.059-2.528c-.865-2.306-2.819-3.777-5.319-4.053-1.451-.519-3.128-.828-5.003-.92a96.649 96.649 0 0 0-4.516-.129c-1.733 0-3.248.381-4.502 1.134a13.62 13.62 0 0 0-2.588 2.042 47.37 47.37 0 0 0-1.99 2.127c-.374.424-.866.832-1.466 1.212-1.443.919-3.022 2.722-5.12 5.844-1.795 2.671-3.602 5.754-5.369 9.162-.08.154-.153.311-.232.465l.436-4.845.016-.358c0-.993-.206-2.026-.631-3.159a15.949 15.949 0 0 0-1.255-2.597 21.967 21.967 0 0 0-1.543-2.237 25.762 25.762 0 0 0-.968-1.161 41.301 41.301 0 0 1-1.059-2.528c-.865-2.306-2.819-3.777-5.319-4.053-1.451-.519-3.128-.828-5.003-.92a96.649 96.649 0 0 0-4.516-.129c-1.733 0-3.248.381-4.502 1.134a13.62 13.62 0 0 0-2.588 2.042 47.37 47.37 0 0 0-1.99 2.127c-.374.424-.866.832-1.466 1.212-1.443.919-3.022 2.722-5.12 5.844-1.795 2.671-3.602 5.754-5.369 9.162a90.533 90.533 0 0 0-4.656 10.559c-.98 2.682-1.588 5.088-1.85 7.288a10.714 10.714 0 0 0-1.629-.352l-.207-.022c-2.011-.164-4.111.565-6.134 2.169a66.047 66.047 0 0 0-4.006 3.471 44.101 44.101 0 0 1-3.615 3.042 6.29 6.29 0 0 1-.346.242 15.907 15.907 0 0 1-.62-1.547 23.575 23.575 0 0 1-.855-3.21 21.127 21.127 0 0 1-.245-1.517c.08-.147.161-.3.242-.456.294-.42.555-.856.778-1.299l.169-.336 1.26-4.411v-2.016c.072-.282.163-.661.281-1.188l.5-2.247.033-.161c.125-.687.249-1.397.374-2.131l1.946-3.058v-.058a9.906 9.906 0 0 1 1.201-.119 99.794 99.794 0 0 1 4.576-.121h1.754c.167 0 .403.02.692.045.428.04.954.099 1.579.176l.486.03c1.262 0 2.566-.416 3.875-1.234 1.071-.67 2.038-1.562 2.874-2.654a15.772 15.772 0 0 0 1.849-3.105 10.33 10.33 0 0 0 .916-4.068c.211-2.411-.169-4.506-1.136-6.239a10.867 10.867 0 0 0-3.75-3.942c-1.343-.839-2.879-1.485-4.573-1.923a41.997 41.997 0 0 0-3.952-.83l-.288-.034c-1.507-.123-2.592-.068-3.54.151-.68.156-1.399.368-2.145.633-.535.191-1.108.383-1.726.575-.253.08-.879.239-2.216.417l-.382.051-.365.123c-.811.272-1.702.65-2.416 1.374-.849.203-1.716.56-2.619 1.076a18.735 18.735 0 0 0-3.188 2.309 20.746 20.746 0 0 0-2.557 2.716c-.932 1.196-1.479 2.347-1.657 3.497-.237.723-.533 1.65-.885 2.779-.401 1.28-.828 2.562-1.269 3.805a117.72 117.72 0 0 0-1.231 3.628 419.62 419.62 0 0 1-.618 1.917l-.199.607v2.68L1.84 84.378v.841c0 1.167-.194 2.219-.591 3.214-.755 1.889-1.137 4.26-1.162 7.24-.09.668-.108 1.447-.059 2.401l.125 2.561c.044.955.114 1.878.205 2.73.032.311.054.551.07.735l-.342 1.025v.649c0 .889.113 2.07.355 3.711a37.072 37.072 0 0 0 1.051 4.844c.529 1.853 1.293 3.537 2.273 5.006 1.428 2.143 3.532 3.417 5.962 3.591.417.026.829.039 1.236.039 2.942 0 5.693-.677 8.181-2.015 2.254-1.216 4.812-2.732 7.605-4.508 1.077-.655 2.328-1.652 3.819-3.047a47.42 47.42 0 0 0 4.109-4.381 38.579 38.579 0 0 0 2.382-3.201v2.341c0 1.775.355 3.534 1.056 5.226a16.708 16.708 0 0 0 2.553 4.275 13.45 13.45 0 0 0 4.012 3.297 11.283 11.283 0 0 0 5.404 1.354c1.061 0 2.074-.083 3.016-.249a11.64 11.64 0 0 0 3.164-1.053 39.517 39.517 0 0 0 2.524-1.4 68.048 68.048 0 0 1 2.787-1.564c1.183-.505 2.325-1.246 3.396-2.204a24.551 24.551 0 0 0 2.7-2.849 91.25 91.25 0 0 0 2.094-2.683 40.098 40.098 0 0 1 1.532-1.932l.083-.1a15.2 15.2 0 0 0 2.122-3.495c.404-.943.774-1.892 1.101-2.823.284-.812.568-1.605.855-2.383.091-.246.26-.49.517-.747l.216-.235c.382-.449.728-.923 1.08-1.393.139 1.363.422 2.357.898 3.145v7.813c0 1.775.355 3.534 1.056 5.226a16.708 16.708 0 0 0 2.553 4.275 13.45 13.45 0 0 0 4.012 3.297 11.283 11.283 0 0 0 5.404 1.354c1.061 0 2.074-.083 3.016-.249a11.64 11.64 0 0 0 3.164-1.053 39.517 39.517 0 0 0 2.524-1.4 68.048 68.048 0 0 1 2.787-1.564c1.183-.505 2.325-1.246 3.396-2.204a24.551 24.551 0 0 0 2.7-2.849 91.25 91.25 0 0 0 2.094-2.683 40.098 40.098 0 0 1 1.532-1.932l.083-.1a15.2 15.2 0 0 0 2.122-3.495c.402-.939.772-1.887 1.099-2.819zM65.636 83.55c-.909 1.157-1.397 2.457-1.437 3.78a343.6 343.6 0 0 0-1.48 3.69 161.806 161.806 0 0 1-1.516 3.72c-.106.125-.384.407-.992.812a55.185 55.185 0 0 1-3.157 1.954c-.787.415-1.621.834-2.495 1.252-.028-.053-.057-.107-.084-.163-.29-.58-.534-1.163-.723-1.731a9.196 9.196 0 0 0-.672-1.557v-.93a36.48 36.48 0 0 1 .996-4.506l1.139-4.326c.236-.433.682-1.202 1.513-2.522a43.635 43.635 0 0 1 2.871-4.017 22.049 22.049 0 0 1 3.233-3.289c.348-.285.679-.5.968-.633.305.451.578.971.814 1.55.363.894.628 1.749.785 2.531.212 1.071.235 1.416.237 1.416v2.969zm41.11 0c-.909 1.157-1.397 2.457-1.437 3.78a343.6 343.6 0 0 0-1.48 3.69 161.806 161.806 0 0 1-1.516 3.72c-.106.125-.384.407-.992.812a55.185 55.185 0 0 1-3.157 1.954c-.787.415-1.621.834-2.495 1.252-.028-.053-.057-.107-.084-.163-.29-.58-.534-1.163-.723-1.731a9.196 9.196 0 0 0-.672-1.557v-.93a36.48 36.48 0 0 1 .996-4.506l1.139-4.326c.236-.433.682-1.202 1.513-2.522a43.635 43.635 0 0 1 2.871-4.017 22.049 22.049 0 0 1 3.233-3.289c.348-.285.679-.5.968-.633.305.451.578.971.814 1.55.363.894.628 1.749.785 2.531.212 1.071.235 1.416.237 1.416v2.969zM192.283 47.761c1.851 1.068 3.679 1.646 5.44 1.719.345.05.69.075 1.028.075a6.568 6.568 0 0 0 3.908-1.277 10.568 10.568 0 0 0 2.627-2.811 14.975 14.975 0 0 0 1.544-3.17c.31-.885.565-1.674.758-2.346l.156-.542v-.564c0-.725.119-.987.122-.994.593-1.262.881-2.413.881-3.518 0-.825-.086-1.705-.257-2.618a6.894 6.894 0 0 1-.119-1.267v-1.135l-.596-.966c-.503-.815-.877-1.587-1.114-2.299-.72-2.156-2.389-3.8-4.699-4.63l-.655-.235h-.696c-.574 0-1.218.089-2.089.29a112.9 112.9 0 0 1-1.632.363c-.607.13-1.193.26-1.749.389-.308.071-.448.085-.429.086h-2.101l-1.191 1.741a51.29 51.29 0 0 0-2.992 4.901c-1.057 1.997-1.592 4.482-1.592 7.385 0 .525-.066 1.19-.196 1.969-.438 2.609.472 4.333 1.35 5.342 1.016 1.675 2.459 3.057 4.293 4.112zM228.436 66.043c-.419 0-.836.313-1.253.94a29.294 29.294 0 0 0-1.253 2.068c-.419.92-.836 1.88-1.253 2.883-.084.419-.209.899-.376 1.441a12.733 12.733 0 0 0-.376 1.504c-.084.46-.043.836.125 1.128.167.294.501.439 1.002.439.417.084 1.044 0 1.88-.251.834-.25 1.692-.626 2.569-1.128s1.67-1.106 2.381-1.817c.709-.709 1.106-1.482 1.191-2.319V68.8c0-.417-.125-.793-.376-1.128a2.532 2.532 0 0 0-.877-.752c-.335-.251-.752-.458-1.253-.627l-2.131-.25z"/><path d="M461.494 97.197a4.789 4.789 0 0 0-3.323-1.619c-1.367-.083-2.835.254-4.416 1.042-.449.225-.898.47-1.347.735.13-.573.299-1.232.521-1.988a186.843 186.843 0 0 1 2.332-7.36 775.103 775.103 0 0 0 2.457-7.372c.893-2.727 1.326-4.876 1.326-6.571l-.003-2.416c.001-.009.021-.235.16-.858a23.64 23.64 0 0 1 .533-1.974c.276-.872.514-1.728.708-2.551.253-1.081.356-1.763.356-2.354 0-2.056-.675-3.987-2.009-5.745-1.092-1.434-3.172-3.144-6.88-3.144-2.201 0-4.406.896-6.74 2.74a48.09 48.09 0 0 0-5.063 4.651c-.622.656-1.226 1.309-1.808 1.954a13.647 13.647 0 0 0-.65-2.104c-.511-1.304-1.246-2.583-2.19-3.809a14.252 14.252 0 0 0-3.485-3.221c-1.618-1.055-3.471-1.589-5.506-1.589-1.956 0-3.389 1.233-4.536 2.442a46.957 46.957 0 0 0-2.746 3.224c-.95 1.21-1.979 2.587-3.054 4.093a297.93 297.93 0 0 1-2.966 4.079 124.438 124.438 0 0 1-2.252 2.947v-1.253l-.024-.444c-.006-.052-.05-.543.197-1.779.273-1.364.482-2.733.621-4.072.184-1.773.037-3.391-.437-4.814-.849-2.533-3.134-4.046-6.111-4.046-1.41 0-2.902.545-4.696 1.718a44.564 44.564 0 0 0-3.581 2.616 52.353 52.353 0 0 0-3.194 2.787c-.502.479-.905.865-1.211 1.16-1.445.692-2.832 1.675-4.13 2.928-.63.606-1.241 1.236-1.854 1.862a11.724 11.724 0 0 0-.274-.826 15.972 15.972 0 0 0-1.255-2.595 22.062 22.062 0 0 0-1.544-2.238 25.763 25.763 0 0 0-.967-1.159 41.522 41.522 0 0 1-1.06-2.528c-.863-2.305-2.816-3.776-5.314-4.053-1.457-.524-3.102-.826-5.008-.92a96.54 96.54 0 0 0-4.516-.129c-1.734 0-3.249.382-4.5 1.133a13.5 13.5 0 0 0-2.588 2.042 46.836 46.836 0 0 0-1.99 2.127c-.375.425-.867.833-1.468 1.214-1.443.919-3.022 2.721-5.119 5.843-1.792 2.665-3.599 5.748-5.37 9.162a90.566 90.566 0 0 0-4.655 10.558c-.98 2.682-1.588 5.087-1.851 7.288a10.688 10.688 0 0 0-1.629-.352l-.207-.022c-2.02-.163-4.111.565-6.133 2.169a65.708 65.708 0 0 0-4.008 3.472 44.218 44.218 0 0 1-3.614 3.042 5.956 5.956 0 0 1-.347.242 15.618 15.618 0 0 1-.619-1.545 23.274 23.274 0 0 1-.855-3.213 21.694 21.694 0 0 1-.245-1.515c.081-.148.161-.3.242-.456.292-.417.552-.851.775-1.294l.171-.338 1.26-4.413V85.77c.081-.315.174-.708.286-1.206l.494-2.228.034-.165c.124-.687.248-1.396.373-2.129l1.946-3.057v-.059a9.907 9.907 0 0 1 1.2-.119 99.83 99.83 0 0 1 4.576-.121h1.755c.167 0 .403.02.691.045.428.04.955.099 1.58.176l.486.03c1.262 0 2.565-.416 3.875-1.234 1.07-.669 2.036-1.561 2.875-2.655a15.8 15.8 0 0 0 1.848-3.104 10.32 10.32 0 0 0 .915-4.068c.212-2.411-.169-4.507-1.136-6.237a10.852 10.852 0 0 0-3.751-3.944c-1.343-.839-2.879-1.485-4.572-1.923a41.816 41.816 0 0 0-3.953-.83l-.287-.034c-1.505-.123-2.595-.068-3.539.151-.688.158-1.388.364-2.146.634-.534.191-1.107.383-1.725.575-.254.08-.879.239-2.217.417l-.382.051-.366.123c-.815.274-1.713.655-2.419 1.375-.849.204-1.715.56-2.615 1.076a18.8 18.8 0 0 0-3.188 2.308 20.805 20.805 0 0 0-2.559 2.719c-.93 1.195-1.476 2.346-1.654 3.494-.237.723-.533 1.651-.886 2.78a107.435 107.435 0 0 1-1.269 3.807 117.518 117.518 0 0 0-1.23 3.626 311.68 311.68 0 0 1-.614 1.905l-.203.613v2.688l-1.378 3.133v.841c0 1.167-.193 2.219-.591 3.213-.756 1.886-1.137 4.257-1.163 7.238-.091.67-.109 1.451-.059 2.404l.124 2.561c.032.685.081 1.346.138 1.988-.524-1.043-1.316-2.074-2.385-3.108a47.153 47.153 0 0 0-4.733-3.98c-1.721-1.267-3.415-2.356-5.04-3.241-2.338-1.268-3.456-1.674-4.601-1.674h-1.503l-1.131.989c-.964.843-1.966 2.078-3.153 3.884a151.421 151.421 0 0 0-2.962 4.7 70.789 70.789 0 0 0-2.217 3.925c.447-1.447.679-2.903.679-4.36 0-2.862-.264-5.513-.783-7.878-.502-2.287-1.136-4.395-1.885-6.27-.75-1.871-1.589-3.569-2.498-5.054a45.117 45.117 0 0 1-1.897-3.389l-.252-.435a7.782 7.782 0 0 1-.822-1.654 4.353 4.353 0 0 1-.261-1.516c0-.556.092-1.09.279-1.631a2.76 2.76 0 0 1 .68-1.056l.048-.047c.143-.083.564-.3 1.498-.588a335.691 335.691 0 0 0 5.011-1.585 43.522 43.522 0 0 0 4.975-1.938c3.747-1.758 4.307-4.477 4.307-5.94 0-2.143-.829-4.198-2.47-6.116-2.234-2.602-4.724-3.148-6.419-3.148h-2.758c-.74 0-1.809.042-3.37.132-1.947.116-3.57.604-4.839 1.455-1.013.446-1.941 1.152-2.77 2.107a34.116 34.116 0 0 1-1.625 1.738l-.373.43a49.545 49.545 0 0 1-1.564 1.968c-.2.24-.361.406-.48.517-1.551.488-2.99 1.36-4.293 2.605a23.815 23.815 0 0 0-3.315 3.988 31.86 31.86 0 0 0-2.583 4.729 28.802 28.802 0 0 0-1.744 5.102l-.105.45v1.841c0 1.976.703 4.178 2.146 6.729 1.1 1.949 2.355 4.049 3.729 6.238a98.402 98.402 0 0 1 3.489 6.013c1.052 1.987 1.165 2.991 1.165 3.331 0 .011-.002.268-.192.868a4.14 4.14 0 0 1-.579 1.149 3.799 3.799 0 0 1-.869.876c-.767 0-1.433-.104-1.98-.31a19.531 19.531 0 0 1-2.239-.986 23.293 23.293 0 0 1-1.768-1.016c-.923-.592-2.05-1.197-3.414-1.197-1.405 0-2.83.432-4.324 1.302.133-.561.233-1.127.286-1.7l.017-.365c0-3.763-1.96-5.117-3.149-5.598a7.717 7.717 0 0 0-2.361-.513c-1.254-.252-2.604-.013-4.059.758-.668.354-1.597.808-2.761 1.35l-.377.176-.333.25a74.109 74.109 0 0 1-3.473 2.413c-.148.096-.293.189-.436.279a2.572 2.572 0 0 1-.125-1.15l.028-5.649c.057-1.205.333-2.108.843-2.761.768-.982 1.747-1.863 2.911-2.617a37 37 0 0 1 4.521-2.485 39.574 39.574 0 0 0 5.517-3.118 41.124 41.124 0 0 0 5.559-3.879c2.564-2.115 3.933-5.028 3.961-8.429a20.1 20.1 0 0 0-.482-5.539c-.449-1.903-1.2-3.625-2.235-5.12a11.982 11.982 0 0 0-4.397-3.845c-1.731-.895-3.779-1.36-6.089-1.385-2.202-.184-4.694.304-7.531 1.51-2.535 1.081-5.024 2.526-7.401 4.295a34.937 34.937 0 0 0-6.298 6.019c-1.906 2.357-3.055 4.765-3.422 7.169l-2.281 5.359-.058.142a13.149 13.149 0 0 0-.838 3.451c-.37.811-.557 1.626-.557 2.438 0 .181.005.358.016.53l-.211 1.25c-.088.522-.243 1.591-.458 3.199-.125.922-.259 1.884-.399 2.866h-.712a6.904 6.904 0 0 0-3.719 1.067c-.703.448-1.372.989-1.991 1.607l-.015.015a2.274 2.274 0 0 1-.049-.18c.007-.157.031-.336.095-.458a13.4 13.4 0 0 0 1.102-2.744c.255-.693.489-1.251.697-1.666.571-1.142.861-2.503.861-4.045v-.88c.108-.42.216-.822.326-1.204.223-.687.393-1.404.506-2.14a13.56 13.56 0 0 0 .171-2.043v-1.002c0-1.4.145-2.659.431-3.739.463-1.747.697-3.652.697-5.662 0-.749-.067-1.471-.19-2.101a9.122 9.122 0 0 0-.569-1.929l.759-2.362v-.627c0-2.132-.82-4.193-2.379-5.969-1.686-1.91-3.937-2.919-6.509-2.919-1.422 0-2.874.609-5.547 2.327a79.854 79.854 0 0 0-5.746 4.094c-2.006 1.561-3.817 3.147-5.386 4.715-2.358 2.359-3.365 4.198-3.365 6.15v2.005c0 1.458.348 2.763 1.035 3.883.558 1.029 1.303 1.775 2.217 2.22l.829.404h.922c1.478 0 2.764-.09 3.86-.424-.055.239-.128.511-.223.817a184.203 184.203 0 0 1-1.164 3.614 337.956 337.956 0 0 1-1.177 3.47c-.535 1.546-.784 2.758-.784 3.814v1.128c0 .879-.143 1.227-.156 1.256a9.063 9.063 0 0 0-.545 1.725c-.021-.079-.03-.165-.053-.243-.533-1.78-1.825-3.049-3.543-3.482l-.481-.122h-1.625c-1.375 0-3.944.454-5.709 3.486-.285.488-.547.669-.72.764l-.505.275-.407.407c-.723.724-1.355 1.623-1.876 2.668-.192.383-.385.745-.576 1.078a3.17 3.17 0 0 1-.206-.209c-.846-.94-1.568-2.068-2.146-3.354a21.982 21.982 0 0 1-1.433-4.291c-.335-1.526-.437-2.439-.463-2.94.057-.21.222-.695.692-1.551a88.908 88.908 0 0 1 2.275-3.892 67.057 67.057 0 0 0 2.597-4.595c1-1.941 1.568-3.838 1.688-5.638l.009-.268c0-.843-.217-1.678-.895-3.446-.493-1.278-1.156-2.632-1.974-4.032a20.53 20.53 0 0 0-3.19-4.123c-1.691-1.692-3.593-2.63-5.654-2.79l-.101-.006c-2.457-.126-4.775.521-6.878 1.921a29.06 29.06 0 0 0-3.965 3.174 122.59 122.59 0 0 1 1.439-3.751l.287-.715v-2.798c.626-2.558 1.334-5.24 2.107-7.983a49.363 49.363 0 0 1 3.131-8.171l1.242-2.935.079-.38c.236-1.133.632-1.928 1.208-2.428.967-.837 2.105-1.56 3.383-2.15a69.941 69.941 0 0 1 4.857-2.013 24.644 24.644 0 0 0 5.548-2.923c1.347-.634 2.141-1.821 2.466-2.307a21.008 21.008 0 0 0 1.476-2.635c.443-.935.82-1.866 1.12-2.768.282-.847.448-1.476.526-2.021.149-.539.243-.922.292-1.162.083-.416.124-.906.135-1.632.404-1.971.268-3.824-.41-5.523a10.197 10.197 0 0 0-3.276-4.31c-1.259-.969-2.715-1.744-4.336-2.306a18.328 18.328 0 0 0-4.731-.96l-.27-.015c-1.064 0-2.169.212-3.281.629-.774.289-1.55.662-2.314 1.109-.485.174-.986.372-1.492.589a.74.74 0 0 1-.308.054h-.35l-.344.061c-2.147.378-4.047 1.284-5.646 2.691a21.524 21.524 0 0 0-3.385 3.77 26.365 26.365 0 0 0-2.363 4.064 179.909 179.909 0 0 0-1.358 2.976 2142.667 2142.667 0 0 0-5.461 12.681c-1.84 4.306-3.136 8.939-3.841 13.708l-1.391 8.476c-.13.906-.36 1.826-.684 2.732-.468 1.307-.792 2.334-.993 3.139l-.118.475v5.002c0 1.201-.119 1.76-.167 1.935-.112.402-.356 1.141-.888 2.379l-.324.755v.822c0 .352-.042.771-.127 1.248-.168.953-.248 2.332-.249 4.335l-.332 11.623c-.56.755-.939 1.554-1.133 2.389-.174.754-.27 1.571-.287 2.434-.179 1.405-.239 2.557-.185 3.507.016.282.015.952-.159 2.264l-.033.408c-.079 2.641-.608 4.029-1.038 4.728-.783 1.271-1.633 2.307-2.527 3.079a157.993 157.993 0 0 0-3.346 2.959c-1.755 1.604-2.701 3.755-2.741 6.231-.151 2.327.785 4.314 2.583 5.472 1.016.655 2.233 1.121 3.616 1.383 1.121.213 2.279.321 3.44.321.75 0 1.384.032 1.884.094l.498.031c1.105 0 2.209-.322 3.292-.958l.061.025c1.489.619 3.145.933 4.92.933h2.881c.551.174 1.314.41 2.291.706a76.63 76.63 0 0 0 3.253.928l.48.121h.495c.571 0 1.214-.089 2.092-.291a9.628 9.628 0 0 0 2.685-1.072 8.881 8.881 0 0 0 2.388-2.042 6.542 6.542 0 0 0 .954-1.562 20.024 20.024 0 0 0 2.799 2.988c1.943 1.683 4.308 2.558 7.031 2.603.11.008.221.012.332.012 2.119 0 3.641-1.374 4.736-2.577.932-1.027 1.967-2.314 3.08-3.826a87.613 87.613 0 0 0 3.352-4.929 100.403 100.403 0 0 0 3.067-5.156 75.515 75.515 0 0 0 2.32-4.51c.405-.871.695-1.583.896-2.208v1.589l-1.002 3.509v6.941h1.002v.512c0 1.362.363 2.697 1.076 3.964.53.944 1.206 1.857 2.001 2.709a11.36 11.36 0 0 0 2.997 2.313c1.289.684 2.573 1.03 3.817 1.03 1.959 0 3.848-.937 5.774-2.864a31.48 31.48 0 0 0 3.666-4.451 78.033 78.033 0 0 0 2.908-4.561 53.753 53.753 0 0 0 1.391-2.482c.303-.252.673-.566 1.09-.925l.387.583c.089.134.175.293.252.446.046.094.071.158.083.193v1.822c-.103 1.192.119 2.48.66 3.825a13.855 13.855 0 0 0 2.017 3.442 15.081 15.081 0 0 0 2.901 2.812c1.361 1.002 2.789 1.593 4.243 1.756l.447.025a58.92 58.92 0 0 0 3.974-.135c2.102-.146 4.228-1.153 6.316-2.995l.184-.172c.081-.082.587-.556 2.563-1.909a52.336 52.336 0 0 0 2.931-2.173c-.024.211-.04.421-.04.626 0 4.486 2.948 7.384 7.509 7.384h3.874l.358-.065c.939-.172 1.836-.343 2.691-.513l.197-.044a12.752 12.752 0 0 1 1.527-.286 9.524 9.524 0 0 1 1.13-.094h4.512c1.329 0 2.437-.081 3.393-.25a12.094 12.094 0 0 0 3.283-1.113 36.41 36.41 0 0 0 2.964-1.69c.938-.586 2.303-1.368 4.056-2.323l.487-.313c2.705-2.031 4.964-4.416 6.711-7.087.225-.344.434-.688.633-1.034a5.1 5.1 0 0 0-.211 1.413c0 .879.239 1.748.984 3.576a32.938 32.938 0 0 0 1.923 3.921 21.946 21.946 0 0 0 2.841 3.912c2.071 2.268 4.215 2.744 5.647 2.744 1.557 0 3.142-.702 5.655-2.506a62.456 62.456 0 0 0 5.36-4.353 63.784 63.784 0 0 0 4.887-4.889c.948-1.068 1.724-2.062 2.253-3.051.04.308.082.625.134.972.231 1.59.585 3.222 1.051 4.845.527 1.852 1.293 3.536 2.273 5.007 1.428 2.143 3.532 3.417 5.962 3.591.418.026.829.039 1.237.039 2.942 0 5.692-.677 8.18-2.015 2.254-1.215 4.812-2.732 7.606-4.508 1.076-.655 2.326-1.652 3.819-3.047a47.637 47.637 0 0 0 4.108-4.381 38.946 38.946 0 0 0 2.381-3.2v2.341c0 1.779.355 3.538 1.055 5.225a16.671 16.671 0 0 0 2.554 4.276 13.437 13.437 0 0 0 4.012 3.297 11.283 11.283 0 0 0 5.404 1.354c1.061 0 2.073-.083 3.016-.249a11.663 11.663 0 0 0 3.164-1.053 38.764 38.764 0 0 0 2.524-1.401 65.317 65.317 0 0 1 2.786-1.563c1.183-.505 2.324-1.246 3.394-2.203a24.375 24.375 0 0 0 2.703-2.851 91.362 91.362 0 0 0 2.093-2.681 40.152 40.152 0 0 1 1.534-1.934l.082-.099a15.168 15.168 0 0 0 2.121-3.494 46.69 46.69 0 0 0 1.102-2.824c.284-.812.568-1.605.857-2.388.089-.243.258-.485.515-.743l.218-.235a28.141 28.141 0 0 0 5.113-8.908c1.038-2.942 1.592-5.715 1.693-8.276.183.015.364.041.549.041 1.664 0 3.12-.328 4.318-.968l.103-.055a6.274 6.274 0 0 0-.022.532l.009.261c.025.393.006 1.653-.725 4.869a134.47 134.47 0 0 1-2.191 8.338 250.908 250.908 0 0 1-2.528 8.078c-1.106 3.319-1.477 4.117-1.54 4.244l-.053.11c-1.307 2.834-.77 4.959-.09 6.24.05.095.083.167.104.216.029.678.169 1.41.419 2.212.243.797.579 1.594.993 2.359a8.537 8.537 0 0 0 2.112 2.575c1.174.963 2.55 1.472 3.979 1.472 3.063 0 5.771-1.367 7.832-3.956a26.944 26.944 0 0 0 3.758-6.405c.912-2.194 1.611-4.295 2.078-6.251.311-1.306.49-2.098.594-2.622a54.229 54.229 0 0 0 1.798-4.504c.471-1.348 1.205-2.774 2.183-4.239l.249-.429c.256-.51.703-1.424 1.34-2.743a49.482 49.482 0 0 1 2.085-3.82 22.426 22.426 0 0 1 1.797-2.563c-.1.278-.193.558-.282.839-1.337 3.28-1.987 5.898-1.987 7.999v1.002c0 .427-.106 1.186-.616 2.373a255.009 255.009 0 0 0-2.036 4.899 63.034 63.034 0 0 0-2.075 6.02 23.134 23.134 0 0 0-.911 7.378c.056 2.184 1.659 3.519 2.192 3.962.735.612 1.626 1.182 2.649 1.694.938.469 1.915.865 2.903 1.176 1.197.378 2.268.562 3.272.562 1.847 0 4.493-.851 6.617-4.907 1.053-2.016 2.085-4.532 3.069-7.481a196.342 196.342 0 0 0 2.815-9.277 120.715 120.715 0 0 1 2.912-9.099c1.003-2.742 2.091-5.156 3.232-7.174.174-.307.351-.589.529-.844.01.087.019.175.026.264.05.612.083 1.126.1 1.537l-.312 1.092c-.221.671-.39 1.356-.497 2.018-.1.587-.158 1.111-.176 1.593a19.873 19.873 0 0 1-1.225 4.421 207.164 207.164 0 0 1-2.337 5.594 56.559 56.559 0 0 0-2.362 6.546 27.812 27.812 0 0 0-1.102 7.833c0 .668.113 1.459.356 2.484a10.86 10.86 0 0 0 1.378 3.269 13 13 0 0 0 2.175 2.63c1.327 1.232 3.049 1.884 4.979 1.884 1.934 0 3.599-.379 4.957-1.133a11.912 11.912 0 0 0 3.119-2.54 277.55 277.55 0 0 1 2.039-2.286c.566-.629 1.376-1.331 2.405-2.087l.354-.26.289-.331c.574-.657 1.437-1.622 2.59-2.898a335.443 335.443 0 0 0 3.53-3.973 167.321 167.321 0 0 0 4.368-5.137l.81-.991.085-1.277c.051-.701.195-2.87-1.296-4.57zm-317.835 7.146a12.972 12.972 0 0 1-3.067-1.402c-.037-.163-.085-.512-.039-1.128l.011-3.549c.073-.323.159-.756.259-1.358.054-.321.124-.647.211-.974a13.382 13.382 0 0 1 1.794 2.547 23.633 23.633 0 0 1 1.608 3.644c.393 1.147.708 2.1.94 2.841a15.033 15.033 0 0 0-1.717-.621zm2.05-26.931a12.211 12.211 0 0 1-1.511 2.313 8.29 8.29 0 0 1-1.246 1.229l-.005-.22c.116-1.227.542-2.171 1.334-2.964.319-.32.786-.677 1.636-.808a7.349 7.349 0 0 1-.208.45zm222.737 6.139c-.908 1.156-1.396 2.456-1.437 3.779a356.94 356.94 0 0 0-1.48 3.691 157.404 157.404 0 0 1-1.516 3.72c-.106.125-.384.407-.993.813a55.253 55.253 0 0 1-3.155 1.953c-.788.416-1.623.834-2.496 1.252a13.348 13.348 0 0 1-.806-1.892 9.151 9.151 0 0 0-.673-1.56v-.929a36.075 36.075 0 0 1 .996-4.507l1.139-4.327c.25-.458.7-1.229 1.514-2.522a43.502 43.502 0 0 1 2.868-4.014 22.06 22.06 0 0 1 3.233-3.29c.349-.285.68-.5.969-.633.306.451.578.971.814 1.548.363.895.628 1.75.786 2.535.212 1.068.235 1.414.236 1.414v2.969z"/></g><path fill="none" d="M361.373 74.196a26.659 26.659 0 0 0-2.088 2.313 47.336 47.336 0 0 0-3.133 4.387c-.921 1.463-1.548 2.528-1.881 3.196l-1.253 4.763a38.698 38.698 0 0 0-.814 3.384c-.21 1.087-.313 1.755-.313 2.005v2.382c.333.25.627.752.877 1.504.251.752.564 1.504.94 2.256a9.784 9.784 0 0 0 1.315 2.006c.502.585 1.211.877 2.131.877a81.344 81.344 0 0 0 4.638-2.256c1.17-.668 2.319-1.379 3.447-2.131s1.899-1.504 2.318-2.256a154.15 154.15 0 0 0 1.692-4.136 333.897 333.897 0 0 1 1.817-4.512c-.168-.668.02-1.336.564-2.006.542-.667.814-1.294.814-1.88v-3.509c0-.417-.105-1.148-.313-2.194a18.323 18.323 0 0 0-1.003-3.259c-.121-.296-.269-.555-.403-.831"/><path fill="#FFF" d="M17.191 84.482c-3.64-.529-7.094-1.047-10.347-1.549L5.839 85.22c0 1.673-.294 3.239-.877 4.7-.585 1.463-.877 3.49-.877 6.079-.085.419-.106 1.046-.064 1.88l.125 2.569c.041.877.104 1.713.188 2.507.082.795.125 1.359.125 1.692l-.376 1.128c0 .67.104 1.714.313 3.134.208 1.422.521 2.863.94 4.324.417 1.463 1.003 2.757 1.755 3.885s1.712 1.733 2.883 1.817c2.673.167 5.096-.335 7.27-1.504 2.172-1.171 4.638-2.632 7.395-4.387.834-.501 1.9-1.357 3.196-2.57a43.299 43.299 0 0 0 3.76-4.011 33.213 33.213 0 0 0 3.133-4.45c.877-1.504 1.357-2.839 1.441-4.011.167-.501.167-.981 0-1.441-.168-.458-.877-.771-2.13-.94-1.003-.082-2.111.356-3.322 1.316a61.684 61.684 0 0 0-3.76 3.259 47.818 47.818 0 0 1-3.948 3.322c-1.337 1.002-2.632 1.504-3.885 1.504-.67-.082-1.275-.583-1.817-1.504-.544-.918-1.024-1.984-1.441-3.196a27.394 27.394 0 0 1-1.003-3.76c-.25-1.294-.376-2.319-.376-3.071.083-.25.208-.521.376-.814.167-.292.333-.605.501-.94.25-.333.458-.667.626-1.002l1.003-3.51V85.22l.198-.738zM50.217 88.818c-3.053-.359-8.967-1.084-8.967-1.084-.867 2.731-1.266 5.11-1.195 7.137 0 1.923.166 3.092.501 3.509.333.419.501.877.501 1.379v8.398a9.59 9.59 0 0 0 .752 3.697 12.646 12.646 0 0 0 1.943 3.259 9.417 9.417 0 0 0 2.82 2.319 7.305 7.305 0 0 0 3.509.877c.834 0 1.608-.063 2.319-.188a7.593 7.593 0 0 0 2.068-.689c.668-.335 1.42-.752 2.256-1.253a74.336 74.336 0 0 1 3.133-1.755c.834-.333 1.649-.855 2.444-1.566a20.443 20.443 0 0 0 2.256-2.382 89.86 89.86 0 0 0 2.006-2.569 42.991 42.991 0 0 1 1.692-2.131c.668-.834 1.191-1.692 1.567-2.569s.709-1.733 1.002-2.569c.292-.834.583-1.649.877-2.444.292-.793.771-1.523 1.441-2.193A23.757 23.757 0 0 0 76.1 91.58c-3.024-.289-6.007-.586-8.946-.889-.237.591-.475 1.185-.718 1.801a157.542 157.542 0 0 1-1.692 4.136c-.419.752-1.19 1.504-2.318 2.256a58.876 58.876 0 0 1-3.447 2.131 81.344 81.344 0 0 1-4.638 2.256c-.92 0-1.629-.292-2.131-.877a9.76 9.76 0 0 1-1.316-2.006 17.274 17.274 0 0 1-.94-2.256c-.25-.752-.544-1.253-.877-1.504v-2.382c0-.25.104-.918.313-2.005.208-1.085.48-2.213.815-3.384M81.166 94.871c0 1.923.166 3.092.501 3.509.333.419.501.877.501 1.379v8.398a9.59 9.59 0 0 0 .752 3.697 12.646 12.646 0 0 0 1.943 3.259 9.417 9.417 0 0 0 2.82 2.319 7.305 7.305 0 0 0 3.509.877c.834 0 1.608-.063 2.319-.188a7.593 7.593 0 0 0 2.068-.689c.668-.335 1.42-.752 2.256-1.253a74.336 74.336 0 0 1 3.133-1.755c.834-.333 1.649-.855 2.444-1.566a20.443 20.443 0 0 0 2.256-2.382 89.86 89.86 0 0 0 2.006-2.569 42.991 42.991 0 0 1 1.692-2.131c.668-.834 1.191-1.692 1.567-2.569s.709-1.733 1.002-2.569c.292-.834.583-1.649.877-2.444.292-.793.771-1.523 1.441-2.193l1.063-1.371c-2.823-.167-5.627-.346-8.411-.533l.012-.031c-.38.94-.736 1.8-1.062 2.562-.419.752-1.19 1.504-2.318 2.256a58.876 58.876 0 0 1-3.447 2.131 81.344 81.344 0 0 1-4.638 2.256c-.92 0-1.629-.292-2.131-.877a9.76 9.76 0 0 1-1.316-2.006 17.274 17.274 0 0 1-.94-2.256c-.25-.752-.544-1.253-.877-1.504v-2.382c0-.198.067-.669.199-1.392-3.052-.253-6.07-.516-9.052-.787l-.169 2.804zM127.162 95.262c-.032.349-.07.713-.124 1.113-.084 2.842-.627 5.076-1.629 6.706-1.003 1.629-2.111 2.967-3.321 4.011a150.268 150.268 0 0 0-3.259 2.883c-.959.877-1.441 2.027-1.441 3.447-.082.92.168 1.566.752 1.942.583.376 1.316.648 2.193.815s1.774.25 2.695.25c.918 0 1.711.042 2.381.125.501 0 1.065-.231 1.692-.689.627-.458 1.191-.689 1.692-.689l1.504.752c1.003.417 2.131.626 3.384.626h3.509c.501.167 1.441.458 2.82.877 1.379.417 2.401.709 3.071.877.25 0 .646-.063 1.191-.188a5.602 5.602 0 0 0 1.566-.627c.501-.293.94-.669 1.316-1.128.376-.458.564-.981.564-1.567.167-2.256-.313-3.823-1.441-4.7a11.438 11.438 0 0 0-3.823-1.942c-1.588-.501-3.008-1.169-4.261-2.006-1.253-.834-1.798-2.381-1.629-4.637v-3.76c.082-.251.188-.752.313-1.504.032-.192.08-.383.12-.575v.002c-3.296-.121-6.576-.26-9.835-.414zM175.369 96.245c-1.821.016-3.641.026-5.459.029a5.519 5.519 0 0 1-1.008.728c-.419.419-.795.961-1.128 1.629-.335.669-.67 1.275-1.003 1.817a7.489 7.489 0 0 1-1.065 1.378c-.376.376-.814.523-1.316.439-1.504 0-2.82-.627-3.948-1.88-1.081-1.201-1.984-2.599-2.72-4.184a860.118 860.118 0 0 1-11.76-.239c.123.205.265.389.38.601a27.577 27.577 0 0 1 1.88 4.262c.501 1.463.877 2.612 1.128 3.447a223.215 223.215 0 0 1 1.692 4.387 27.714 27.714 0 0 0 2.319 4.763 16.408 16.408 0 0 0 3.259 3.885c1.253 1.085 2.799 1.629 4.638 1.629.417.083 1.044-.335 1.88-1.253.834-.92 1.774-2.087 2.82-3.509a83.267 83.267 0 0 0 3.196-4.7 95.826 95.826 0 0 0 2.945-4.951 71.077 71.077 0 0 0 2.193-4.261c.583-1.253.877-2.088.877-2.507 0-.167.041-.48.125-.94l.075-.57zM201.238 96.375a5.862 5.862 0 0 1-1.316 1.379 2.902 2.902 0 0 1-1.817.626 2.406 2.406 0 0 1-1.567-.564 5.403 5.403 0 0 1-1.19-1.378 7.531 7.531 0 0 1-.341-.633v.001c-4.062.148-8.128.259-12.193.336v5.748l-1.002 3.509v2.381c.501 0 .793.251.877.752.083.501.125 1.087.125 1.754v2.005c0 .67.188 1.338.564 2.006.376.669.856 1.316 1.441 1.942a7.32 7.32 0 0 0 1.943 1.504c.709.376 1.357.564 1.943.564.834 0 1.817-.564 2.945-1.692a27.307 27.307 0 0 0 3.196-3.885 73.662 73.662 0 0 0 2.757-4.324c.834-1.42 1.379-2.423 1.629-3.008.333-.25.96-.771 1.88-1.566a76.128 76.128 0 0 0 2.757-2.507c.918-.877 1.755-1.692 2.507-2.444s1.128-1.253 1.128-1.504c0-.668-.043-1.253-.125-1.755a1.065 1.065 0 0 0-.137-.375c-1.649.091-3.301.174-4.953.253l-1.051.875zM237.209 99.509c0-1.085-.21-1.712-.627-1.88-.419-.167-.92-.25-1.504-.25-.335-.167-.858-.063-1.567.313a67.35 67.35 0 0 1-2.945 1.441 77.224 77.224 0 0 1-3.698 2.569 41.1 41.1 0 0 1-1.943 1.19c-.585.335-.92.46-1.002.376-1.171 0-2.131-.689-2.883-2.068s-1.046-2.777-.877-4.199v-2.613a587.29 587.29 0 0 1-11.902.8 135.73 135.73 0 0 0-.381 3.004c-.168 1.463-.25 2.362-.25 2.695v2.005l-.376 2.507c.167.251.333.544.501.877.333.67.501 1.296.501 1.88v2.13c-.084.586.041 1.297.376 2.131.333.836.815 1.651 1.441 2.444a11.059 11.059 0 0 0 2.131 2.068c.793.583 1.567.918 2.319 1.003 1.253 0 2.485-.043 3.697-.125 1.21-.084 2.526-.752 3.948-2.005.501-.501 1.545-1.294 3.134-2.381 1.586-1.085 3.215-2.36 4.888-3.823a41.57 41.57 0 0 0 4.637-4.763c1.421-1.711 2.214-3.487 2.382-5.326zM258.643 95.686c1.084 2.049 1.629 3.782 1.629 5.202 0 .585-.125 1.275-.377 2.068a8.137 8.137 0 0 1-1.127 2.256 7.524 7.524 0 0 1-1.818 1.817c-.711.501-1.484.752-2.318.752-1.253 0-2.381-.188-3.384-.564s-1.902-.771-2.695-1.19a27.11 27.11 0 0 1-2.068-1.191c-.586-.376-1.003-.564-1.253-.564-.92 0-2.005.46-3.259 1.379a27.956 27.956 0 0 0-3.572 3.133c-1.128 1.171-2.068 2.381-2.82 3.635s-1.128 2.174-1.128 2.757c0 2.256 1.171 3.384 3.509 3.384h3.51c.918-.168 1.796-.335 2.632-.501a16.562 16.562 0 0 1 2.006-.376c.667-.084 1.21-.125 1.629-.125h4.512c1.085 0 1.984-.063 2.695-.188.708-.125 1.44-.376 2.192-.752a32.408 32.408 0 0 0 2.633-1.504c1.002-.626 2.422-1.441 4.262-2.444 2.338-1.755 4.262-3.78 5.766-6.079 1.504-2.297 2.256-4.575 2.256-6.831 0-2.589-.23-4.929-.689-7.019l-1.384-4.813a388.777 388.777 0 0 1-14.389 2.459l3.05 5.299zM293.61 98.756c-1.588-1.169-3.114-2.15-4.575-2.945-1.463-.793-2.361-1.191-2.694-1.191-.67.586-1.484 1.61-2.444 3.071a144.888 144.888 0 0 0-2.883 4.575 62.485 62.485 0 0 0-2.444 4.387c-.67 1.338-1.003 2.174-1.003 2.507 0 .25.229.94.689 2.068a28.771 28.771 0 0 0 1.692 3.447 17.81 17.81 0 0 0 2.319 3.196c.877.96 1.773 1.441 2.694 1.441.584 0 1.692-.585 3.321-1.754a58.034 58.034 0 0 0 5.014-4.074 59.236 59.236 0 0 0 4.575-4.575c1.335-1.504 2.005-2.548 2.005-3.134 0-1.002-.647-2.131-1.942-3.384a42.92 42.92 0 0 0-4.324-3.635zM310.028 79.204v2.883l-1.378 3.133c0 1.673-.294 3.239-.878 4.7-.586 1.463-.877 3.49-.877 6.079-.085.419-.106 1.046-.062 1.88l.125 2.569c.041.877.104 1.713.188 2.507.083.795.126 1.359.126 1.692l-.376 1.128c0 .67.104 1.714.313 3.134.207 1.422.521 2.863.939 4.324.417 1.463 1.003 2.757 1.755 3.885s1.712 1.733 2.883 1.817c2.673.167 5.096-.335 7.27-1.504 2.172-1.171 4.638-2.632 7.396-4.387.834-.501 1.899-1.357 3.196-2.57a43.299 43.299 0 0 0 3.76-4.011 33.314 33.314 0 0 0 3.134-4.45c.877-1.504 1.356-2.839 1.441-4.011.166-.501.166-.981 0-1.441-.169-.458-.878-.771-2.131-.94-1.003-.082-2.111.356-3.321 1.316a61.689 61.689 0 0 0-3.761 3.259 47.818 47.818 0 0 1-3.948 3.322c-1.338 1.002-2.632 1.504-3.886 1.504-.669-.082-1.274-.583-1.817-1.504-.544-.918-1.023-1.984-1.441-3.196a27.25 27.25 0 0 1-1.002-3.76c-.251-1.294-.376-2.319-.376-3.071a4.39 4.39 0 0 1 .376-.814c.166-.292.333-.605.501-.94.251-.333.458-.667.627-1.002l1.002-3.51V85.22c.083-.25.208-.752.377-1.504.166-.752.332-1.504.501-2.256.166-.918.333-1.88.501-2.883l1.123-1.765a249.709 249.709 0 0 0-12.146 1.985l-.134.407zM349.07 76.007a86.065 86.065 0 0 0-4.449 10.09c-1.254 3.427-1.839 6.351-1.755 8.774 0 1.923.166 3.092.501 3.509.333.419.502.877.502 1.379v8.398c0 1.253.25 2.487.752 3.697a12.643 12.643 0 0 0 1.942 3.259 9.417 9.417 0 0 0 2.82 2.319 7.307 7.307 0 0 0 3.51.877c.834 0 1.607-.063 2.318-.188a7.593 7.593 0 0 0 2.068-.689c.668-.335 1.42-.752 2.256-1.253a73.82 73.82 0 0 1 3.134-1.755c.834-.333 1.648-.855 2.443-1.566a20.366 20.366 0 0 0 2.257-2.382 88.02 88.02 0 0 0 2.005-2.569 44.201 44.201 0 0 1 1.692-2.131c.668-.834 1.19-1.692 1.566-2.569s.709-1.733 1.003-2.569c.292-.834.584-1.649.878-2.444.291-.793.771-1.523 1.441-2.193a24.014 24.014 0 0 0 4.387-7.646c1.002-2.84 1.504-5.431 1.504-7.771l.519-5.771a353.738 353.738 0 0 0-11.636-.507l-.003-.006c.135.276.282.535.403.831a18.273 18.273 0 0 1 1.003 3.259c.208 1.046.313 1.776.313 2.194v3.509c0 .585-.272 1.212-.814 1.88-.545.67-.732 1.338-.564 2.006a333.897 333.897 0 0 0-1.817 4.512 154.15 154.15 0 0 1-1.692 4.136c-.419.752-1.19 1.504-2.318 2.256s-2.277 1.463-3.447 2.131a81.344 81.344 0 0 1-4.638 2.256c-.92 0-1.629-.292-2.131-.877a9.757 9.757 0 0 1-1.315-2.006 17.274 17.274 0 0 1-.94-2.256c-.25-.752-.544-1.253-.877-1.504v-2.382c0-.25.104-.918.313-2.005.207-1.085.479-2.213.814-3.384l1.253-4.763c.333-.668.96-1.733 1.881-3.196a47.336 47.336 0 0 1 3.133-4.387 26.659 26.659 0 0 1 2.088-2.313c-3.816.006-7.637.082-11.457.229l-.846 1.581zM384.445 74.913a5.462 5.462 0 0 0-.219 1.533c.083.168.251.334.502.501a2.872 2.872 0 0 0 1.629.501c1.003 0 1.817-.167 2.444-.501a8.146 8.146 0 0 0 1.692-1.19c.131-.12.256-.223.384-.334-2.14-.177-4.284-.338-6.434-.479M419.13 78.774c.697.588 1.068 1.311 1.068 2.185.167.669 0 1.504-.501 2.507a20.255 20.255 0 0 0-1.254 3.133c-1.171 2.842-1.755 5.057-1.755 6.643v1.002c0 1.171-.312 2.487-.939 3.948a249.957 249.957 0 0 0-2.006 4.826 58.87 58.87 0 0 0-1.942 5.64 19.032 19.032 0 0 0-.752 6.142c0 .251.251.586.752 1.003s1.128.814 1.88 1.191c.752.376 1.523.689 2.319.94.793.25 1.482.376 2.067.376 1.085 0 2.109-.92 3.071-2.757.959-1.837 1.899-4.136 2.82-6.894a191.993 191.993 0 0 0 2.757-9.087c.919-3.3 1.922-6.434 3.009-9.4 1.085-2.965 2.256-5.556 3.509-7.771.225-.396.458-.757.696-1.102l-.003.003a455.358 455.358 0 0 0-14.796-2.528zM416.287 78.354a410.134 410.134 0 0 0-20.672-2.515c.092.556.143 1.21.143 1.986 0 .586-.168 1.128-.501 1.629-.335.501-.501 1.003-.501 1.504.082 1.253-.188 3.259-.815 6.016a137.599 137.599 0 0 1-2.256 8.586 254.8 254.8 0 0 1-2.569 8.209c-.836 2.507-1.422 4.095-1.755 4.763-.501 1.087-.563 1.986-.188 2.695.376.71.563 1.316.563 1.817 0 .334.082.773.251 1.316.166.544.396 1.087.689 1.629a4.543 4.543 0 0 0 1.128 1.379c.458.376.94.564 1.441.564 1.837 0 3.403-.815 4.7-2.444a22.82 22.82 0 0 0 3.196-5.452c.834-2.005 1.461-3.886 1.88-5.64.417-1.755.627-2.714.627-2.883a48.798 48.798 0 0 0 1.88-4.638c.584-1.67 1.461-3.384 2.632-5.139.251-.501.689-1.398 1.316-2.695a53.33 53.33 0 0 1 2.256-4.136 26.514 26.514 0 0 1 3.071-4.136l3.484-2.415zM452.035 85.046a497.685 497.685 0 0 0-10.885-2.341l-.001-.006c.036.255.085.502.107.766.082 1.002.125 1.798.125 2.381l-.501 1.755a9.48 9.48 0 0 0-.376 1.504c-.085.501-.126.92-.126 1.253-.251 1.839-.752 3.697-1.504 5.578a209.463 209.463 0 0 1-2.382 5.703 52.143 52.143 0 0 0-2.193 6.079c-.626 2.131-.939 4.367-.939 6.706 0 .335.082.858.25 1.567a6.85 6.85 0 0 0 .878 2.068 8.934 8.934 0 0 0 1.504 1.818c.584.542 1.336.814 2.256.814 1.254 0 2.257-.209 3.009-.626a7.87 7.87 0 0 0 2.067-1.692c.627-.711 1.316-1.484 2.068-2.319.752-.834 1.755-1.711 3.008-2.632.584-.668 1.461-1.649 2.633-2.946a335.304 335.304 0 0 0 3.509-3.948 161.897 161.897 0 0 0 4.262-5.013c.083-1.253-.209-1.9-.877-1.943-.67-.041-1.463.168-2.382.626-.92.46-1.839 1.024-2.757 1.692-.921.669-1.589 1.128-2.006 1.378-1.003.67-1.714.962-2.131.877-.419-.082-.67-.354-.752-.814-.084-.458-.084-1.003 0-1.629.082-.627.125-1.148.125-1.567 0-1.504.354-3.466 1.065-5.891a190.014 190.014 0 0 1 2.382-7.52l.564-1.678z"/><g fill="#A0CAED"><path d="M36.923 59.086c-1.003-.626-2.152-1.106-3.447-1.441a37.887 37.887 0 0 0-3.572-.752c-1.003-.082-1.776-.062-2.319.063-.544.125-1.108.293-1.692.501a48.08 48.08 0 0 1-1.88.627c-.67.209-1.629.397-2.883.564-.501.168-.795.313-.877.438-.084.125-.125.231-.125.313 0 .084-.043.168-.125.25-.084.084-.376.21-.877.376-.67 0-1.441.25-2.319.752s-1.714 1.108-2.507 1.817a16.694 16.694 0 0 0-2.068 2.193c-.586.752-.877 1.379-.877 1.88-.251.752-.586 1.798-1.003 3.134a114.103 114.103 0 0 1-1.316 3.948c-.46 1.296-.858 2.465-1.191 3.509a421.79 421.79 0 0 1-.626 1.943v2.883l-.373.847c3.252.502 6.707 1.02 10.347 1.549l.08-.334c.032-.135.064-.275.099-.432l.501-2.256c.167-.918.333-1.88.501-2.883l1.754-2.757c0-.583.063-1.085.188-1.504.125-.417.521-.627 1.191-.627.668-.501 1.88-.793 3.635-.877 1.755-.082 3.341-.125 4.763-.125h1.754c.251 0 .605.021 1.065.062.458.043 1.022.106 1.692.188.501 0 1.085-.208 1.754-.626.668-.417 1.273-.981 1.817-1.692a11.698 11.698 0 0 0 1.379-2.319 6.331 6.331 0 0 0 .564-2.632c.167-1.67-.043-3.028-.626-4.074a6.866 6.866 0 0 0-2.381-2.506zM78.723 65.729a17.904 17.904 0 0 0-1.253-1.817 16.576 16.576 0 0 0-1.191-1.379 47.62 47.62 0 0 1-1.441-3.384c-.376-1.003-1.19-1.504-2.444-1.504-1.171-.501-2.613-.793-4.324-.877a93.363 93.363 0 0 0-4.324-.125c-1.003 0-1.817.188-2.444.564a9.547 9.547 0 0 0-1.817 1.441 43.629 43.629 0 0 0-1.817 1.943c-.626.711-1.4 1.359-2.319 1.942-.92.586-2.236 2.152-3.948 4.701-1.713 2.55-3.427 5.474-5.139 8.773a86.24 86.24 0 0 0-4.45 10.09c-.205.56-.385 1.102-.554 1.635 2.919.365 5.908.728 8.961 1.086l1.244-4.727c.333-.668.959-1.733 1.88-3.196a47.164 47.164 0 0 1 3.134-4.387 25.962 25.962 0 0 1 3.823-3.886c1.378-1.128 2.736-1.692 4.073-1.692.834 0 1.586.419 2.256 1.253.668.836 1.232 1.817 1.692 2.945a18.273 18.273 0 0 1 1.003 3.259c.208 1.046.313 1.776.313 2.194v3.509c0 .585-.272 1.212-.815 1.88-.544.67-.732 1.338-.564 2.006-.225.546-.456 1.116-.687 1.687l-.403.999-.01.026c2.939.303 5.922.6 8.946.889l.005-.009a25.223 25.223 0 0 0 1.424-3.216c1.003-2.84 1.504-5.431 1.504-7.771l1.002-11.155c0-.501-.125-1.085-.376-1.755a11.965 11.965 0 0 0-.94-1.942zM90.389 92.853a39.079 39.079 0 0 1 .929-3.998l1.253-4.763c.333-.668.959-1.733 1.88-3.196a47.164 47.164 0 0 1 3.134-4.387 25.962 25.962 0 0 1 3.823-3.886c1.378-1.128 2.736-1.692 4.073-1.692.834 0 1.586.419 2.256 1.253.668.836 1.232 1.817 1.692 2.945a18.273 18.273 0 0 1 1.003 3.259c.208 1.046.313 1.776.313 2.194v3.509c0 .585-.272 1.212-.815 1.88-.544.67-.732 1.338-.564 2.006a333.897 333.897 0 0 0-1.817 4.512c-.218.553-.427 1.072-.63 1.574l-.012.031c2.784.188 5.587.366 8.411.533.285-.387.549-.787.81-1.189a22.919 22.919 0 0 0 1.365-2.403c.136-.274.275-.547.401-.828.27-.605.525-1.22.749-1.854 1.003-2.84 1.504-5.431 1.504-7.771l1.002-11.155c0-.501-.125-1.085-.376-1.755a11.854 11.854 0 0 0-.94-1.943 17.904 17.904 0 0 0-1.253-1.817 16.576 16.576 0 0 0-1.191-1.379 47.62 47.62 0 0 1-1.441-3.384c-.376-1.003-1.19-1.504-2.444-1.504-1.171-.501-2.613-.793-4.324-.877a93.363 93.363 0 0 0-4.324-.125c-1.003 0-1.817.188-2.444.564a9.547 9.547 0 0 0-1.817 1.441 43.629 43.629 0 0 0-1.817 1.943c-.626.711-1.4 1.359-2.319 1.942-.92.586-2.236 2.152-3.948 4.701-1.713 2.55-3.427 5.474-5.139 8.773a86.24 86.24 0 0 0-4.45 10.09c-.184.502-.349.991-.503 1.471-.043.132-.081.262-.122.393-.112.363-.217.721-.312 1.071-.032.119-.065.238-.095.355-.109.419-.208.831-.292 1.231l-.02.09a21.69 21.69 0 0 0-.238 1.357c2.979.272 5.997.535 9.049.788zM157.721 96.202c-.032-.069-.069-.133-.1-.203a25.837 25.837 0 0 1-1.692-5.076c-.376-1.712-.564-3.071-.564-4.074.083-.834.48-1.899 1.191-3.196a91.602 91.602 0 0 1 2.381-4.074 63.29 63.29 0 0 0 2.444-4.324c.752-1.461 1.169-2.82 1.253-4.074 0-.25-.209-.918-.626-2.005-.419-1.085-.983-2.234-1.692-3.447a16.476 16.476 0 0 0-2.57-3.321c-1.002-1.003-2.048-1.545-3.133-1.629-1.588-.083-3.071.335-4.45 1.253a24.607 24.607 0 0 0-3.76 3.071 189.786 189.786 0 0 0-3.008 3.071c-.877.92-1.567 1.337-2.068 1.253-.335 0-.648-.188-.94-.564a5.622 5.622 0 0 1-.752-1.316 5.019 5.019 0 0 1-.376-1.566c-.043-.542-.021-.981.062-1.316 0-1.085.229-2.275.689-3.572a117.87 117.87 0 0 1 1.692-4.449v-2.507c.668-2.757 1.42-5.619 2.256-8.586a53.096 53.096 0 0 1 3.384-8.836l1.002-2.381c.417-2.005 1.253-3.551 2.507-4.638 1.253-1.085 2.695-2.005 4.324-2.757s3.341-1.461 5.139-2.131a20.633 20.633 0 0 0 5.076-2.757c.25 0 .583-.313 1.002-.94.417-.627.815-1.336 1.191-2.131.376-.793.689-1.567.94-2.319s.376-1.253.376-1.504c.167-.584.271-.981.313-1.191.041-.208.062-.646.062-1.316.333-1.336.292-2.526-.125-3.572a6.201 6.201 0 0 0-2.006-2.632c-.92-.709-1.986-1.273-3.196-1.692a14.245 14.245 0 0 0-3.698-.752c-.585 0-1.212.125-1.88.376-.67.25-1.338.585-2.005 1.002a21.12 21.12 0 0 0-1.629.627 4.739 4.739 0 0 1-1.88.376c-1.422.25-2.654.836-3.697 1.755a17.457 17.457 0 0 0-2.758 3.071 22.142 22.142 0 0 0-2.005 3.447 184.144 184.144 0 0 0-1.316 2.883c-1.923 4.43-3.741 8.648-5.452 12.659-1.714 4.011-2.904 8.272-3.572 12.785l-1.379 8.398a18.058 18.058 0 0 1-.877 3.509c-.419 1.171-.711 2.09-.877 2.757v4.512c0 1.253-.106 2.256-.313 3.008-.209.752-.564 1.714-1.065 2.883 0 .585-.062 1.234-.188 1.943-.125.711-.188 1.943-.188 3.697l-.376 13.161c-.67.586-1.065 1.15-1.191 1.692a8.122 8.122 0 0 0-.188 1.817c-.168 1.253-.231 2.256-.188 3.008.013.241.012.517.003.809l-.005.134c-.011.293-.031.609-.063.952 3.26.154 6.539.293 9.835.415v-.002c.055-.263.114-.526.184-.789.076-.297.161-.595.26-.892.25-.752.583-1.42 1.002-2.005.417-.583.918-.877 1.504-.877 1.419.084 2.651.67 3.697 1.755.449.467.864.969 1.253 1.496.383.505.73 1.045 1.062 1.601 3.908.103 7.829.184 11.764.237zm-15.642-10.731c-.752 0-1.359-.167-1.817-.501a2.502 2.502 0 0 1-.94-1.253 6.547 6.547 0 0 1-.313-1.629 20.724 20.724 0 0 1-.062-1.504c.167-2.256 1.003-4.136 2.507-5.641 1.504-1.504 3.466-2.172 5.891-2.005.501 0 1.085.356 1.754 1.065.668.711 1.003 1.526 1.003 2.444 0 .752-.272 1.672-.815 2.757a16.184 16.184 0 0 1-2.005 3.071 11.754 11.754 0 0 1-2.632 2.381c-.963.627-1.819.899-2.571.815zM195.006 95.805a6.834 6.834 0 0 1-.171-.372 5.72 5.72 0 0 1-.24-.625c-.168-.542-.25-.981-.25-1.316 0-.918.188-1.733.564-2.444a9.258 9.258 0 0 0 .815-2.068c.333-.918.646-1.67.94-2.256.292-.584.438-1.336.438-2.256v-1.379c.167-.667.333-1.294.501-1.88a9.53 9.53 0 0 0 .376-1.567 9.648 9.648 0 0 0 .125-1.441v-1.002c0-1.755.188-3.341.564-4.763.376-1.419.564-2.965.564-4.637 0-.501-.043-.96-.125-1.379-.168-.918-.501-1.629-1.003-2.131l1.128-3.509c0-1.169-.46-2.276-1.378-3.322-.921-1.043-2.09-1.566-3.51-1.566-.501 0-1.629.564-3.384 1.692a75.096 75.096 0 0 0-5.452 3.886c-1.88 1.463-3.553 2.926-5.014 4.387-1.463 1.463-2.193 2.569-2.193 3.321v2.005c0 .752.167 1.379.501 1.88.167.335.333.544.501.626 1.754 0 2.82-.167 3.196-.501a1.925 1.925 0 0 1 1.316-.501c1.253 0 2.15.397 2.695 1.19.542.795.814 1.526.814 2.194 0 .92-.188 1.986-.564 3.196a185.624 185.624 0 0 1-1.191 3.698 345.405 345.405 0 0 1-1.19 3.509c-.376 1.087-.564 1.923-.564 2.507v1.128c0 1.171-.168 2.131-.501 2.883-.335.752-.501 1.755-.501 3.008v.144c4.065-.077 8.132-.188 12.193-.336v-.003zM194.282 44.296c1.378.795 2.651 1.191 3.823 1.191.834.168 1.567.021 2.193-.438a6.541 6.541 0 0 0 1.629-1.755c.458-.709.834-1.482 1.128-2.319.292-.834.521-1.545.689-2.131 0-1.085.167-1.984.501-2.695.333-.709.501-1.316.501-1.817 0-.583-.063-1.21-.188-1.88a10.877 10.877 0 0 1-.188-2.005c-.67-1.085-1.171-2.131-1.504-3.134-.334-1.002-1.087-1.711-2.256-2.131-.251 0-.648.063-1.191.188-.544.125-1.108.251-1.692.376-.585.125-1.15.251-1.692.376-.544.125-.983.188-1.316.188a46.949 46.949 0 0 0-2.757 4.512c-.752 1.421-1.128 3.259-1.128 5.515 0 .752-.084 1.629-.251 2.632-.168 1.002.041 1.755.627 2.256.669 1.254 1.693 2.278 3.072 3.071zM220.163 91.737c.083-2.087.646-3.801 1.692-5.139 1.044-1.335 2.338-2.507 3.886-3.51a40.856 40.856 0 0 1 5.014-2.757 35.257 35.257 0 0 0 5.076-2.883 36.692 36.692 0 0 0 5.139-3.572c1.671-1.378 2.507-3.196 2.507-5.452.083-1.586-.043-3.09-.376-4.512-.335-1.42-.877-2.673-1.629-3.76a7.99 7.99 0 0 0-2.945-2.569c-1.212-.626-2.695-.94-4.45-.94-1.588-.167-3.509.231-5.766 1.19-2.256.962-4.449 2.237-6.58 3.823-2.131 1.588-3.991 3.364-5.578 5.327-1.588 1.964-2.466 3.866-2.632 5.703l-1.755 4.136-.752 1.754c-.419 1.087-.626 2.131-.626 3.134-.335.501-.501.94-.501 1.316s.041.689.125.94c.082.251.125.501.125.752 0 .25-.168.501-.501.752-.084.501-.231 1.525-.439 3.071a437.379 437.379 0 0 1-.689 4.888 158.83 158.83 0 0 0-.245 1.759c3.98-.228 7.95-.493 11.902-.8v-2.651zm3.76-16.858c.082-.458.208-.959.376-1.504.167-.542.292-1.022.376-1.441a95.398 95.398 0 0 1 1.253-2.883c.417-.752.834-1.441 1.253-2.068.417-.626.834-.94 1.253-.94l2.131.25c.501.168.918.376 1.253.627.333.168.626.419.877.752.25.335.376.711.376 1.128v2.131c-.084.836-.482 1.61-1.191 2.319-.711.711-1.504 1.316-2.381 1.817s-1.735.877-2.569 1.128c-.836.251-1.463.335-1.88.251-.501 0-.836-.145-1.002-.439-.168-.291-.209-.667-.125-1.128zM265.786 68.048c.502-.583 1.568-1.128 3.197-1.629s3.277-1.022 4.951-1.567a39.3 39.3 0 0 0 4.512-1.754c1.336-.627 2.006-1.398 2.006-2.319 0-1.169-.502-2.338-1.504-3.51-1.004-1.169-2.131-1.754-3.385-1.754h-2.758c-.67 0-1.713.043-3.133.125-1.422.084-2.467.419-3.135 1.003-.584.168-1.148.564-1.691 1.19a38.082 38.082 0 0 1-1.816 1.943c-.502.67-1.066 1.379-1.693 2.131s-1.232 1.296-1.816 1.629c-1.172.25-2.256.858-3.26 1.817a19.685 19.685 0 0 0-2.757 3.322 27.677 27.677 0 0 0-2.256 4.136 24.622 24.622 0 0 0-1.504 4.387v1.378c0 1.253.542 2.842 1.629 4.763a151.34 151.34 0 0 0 3.635 6.079c.204.326.386.644.584.967a393.75 393.75 0 0 0 14.389-2.459c-.102-.278-.201-.56-.308-.827-.67-1.671-1.4-3.153-2.193-4.45a48.155 48.155 0 0 1-2.068-3.697 11.634 11.634 0 0 1-1.254-2.507 8.371 8.371 0 0 1-.502-2.883 8.92 8.92 0 0 1 .502-2.946 6.725 6.725 0 0 1 1.628-2.568zM339.734 59.086c-1.003-.626-2.152-1.106-3.447-1.441a37.887 37.887 0 0 0-3.572-.752c-1.002-.082-1.776-.062-2.318.063-.545.125-1.108.293-1.692.501a48.08 48.08 0 0 1-1.88.627c-.67.209-1.63.397-2.883.564-.501.168-.795.313-.877.438-.085.125-.126.231-.126.313 0 .084-.043.168-.125.25-.084.084-.376.21-.878.376-.669 0-1.441.25-2.318.752s-1.714 1.108-2.507 1.817a16.694 16.694 0 0 0-2.068 2.193c-.585.752-.877 1.379-.877 1.88-.251.752-.586 1.798-1.003 3.134a112.003 112.003 0 0 1-1.316 3.948c-.46 1.296-.857 2.465-1.19 3.509-.082.255-.152.476-.219.681l-.015.046a105.9 105.9 0 0 1-.261.809 249.311 249.311 0 0 1 12.146-1.985l.632-.993c0-.583.062-1.085.188-1.504.125-.417.521-.627 1.19-.627.668-.501 1.88-.793 3.635-.877 1.755-.082 3.341-.125 4.763-.125h1.755c.251 0 .605.021 1.065.062.458.043 1.022.106 1.692.188.501 0 1.085-.208 1.755-.626.668-.417 1.272-.981 1.817-1.692a11.747 11.747 0 0 0 1.379-2.319 6.33 6.33 0 0 0 .563-2.632c.167-1.67-.043-3.028-.627-4.074a6.876 6.876 0 0 0-2.381-2.504zM381.533 65.729a17.904 17.904 0 0 0-1.253-1.817 16.767 16.767 0 0 0-1.191-1.379 47.62 47.62 0 0 1-1.441-3.384c-.376-1.003-1.19-1.504-2.444-1.504-1.171-.501-2.612-.793-4.324-.877a93.288 93.288 0 0 0-4.324-.125c-1.002 0-1.817.188-2.443.564a9.485 9.485 0 0 0-1.817 1.441 42.482 42.482 0 0 0-1.817 1.943c-.627.711-1.4 1.359-2.319 1.942-.92.586-2.236 2.152-3.948 4.701a71.539 71.539 0 0 0-1.801 2.836c-.151.249-.304.498-.455.752a96.687 96.687 0 0 0-1.049 1.814c-.329.584-.657 1.177-.986 1.788 3.82-.146 7.641-.222 11.457-.229a25.102 25.102 0 0 1 1.735-1.573c1.379-1.128 2.735-1.692 4.073-1.692.835 0 1.587.419 2.256 1.253.264.33.503.693.729 1.075.201.326.384.679.561 1.04l.003.006c3.889.104 7.769.275 11.636.507l.484-5.384c0-.501-.126-1.085-.376-1.755a12.483 12.483 0 0 0-.946-1.943zM452.035 85.046c.318-.944.629-1.872.932-2.782.324-.976.646-1.944.949-2.873.752-2.297 1.128-4.074 1.128-5.327v-2.506c0-.333.082-.877.251-1.63a27.5 27.5 0 0 1 .626-2.318c.251-.793.459-1.545.627-2.256.166-.709.251-1.19.251-1.441 0-1.169-.397-2.275-1.191-3.321-.795-1.044-2.026-1.567-3.697-1.567-1.253 0-2.675.626-4.262 1.88a43.819 43.819 0 0 0-4.638 4.262 97.403 97.403 0 0 0-4.136 4.638c-1.253 1.504-2.131 2.465-2.632 2.883-.921.669-1.548.92-1.88.752-.335-.167-.564-.521-.689-1.065-.126-.542-.147-1.147-.063-1.817.083-.668.126-1.128.126-1.379l.752-3.133c0-.583-.188-1.357-.564-2.319-.376-.959-.92-1.899-1.629-2.82a10.224 10.224 0 0 0-2.507-2.318c-.962-.627-2.068-.94-3.321-.94-.335 0-.878.398-1.63 1.191a43.027 43.027 0 0 0-2.507 2.945 109.049 109.049 0 0 0-2.945 3.948 299.98 299.98 0 0 1-3.008 4.136 125.403 125.403 0 0 1-2.695 3.51c-.836 1.045-1.463 1.735-1.88 2.068-1.171.752-2.068 1.087-2.695 1.003-.626-.083-1.108-.354-1.441-.815-.334-.458-.544-1.002-.626-1.629-.085-.626-.126-1.065-.126-1.316v-3.51c-.084-.752 0-1.754.251-3.008s.438-2.485.564-3.698c.125-1.21.041-2.256-.251-3.133-.294-.877-1.065-1.316-2.318-1.316-.586 0-1.422.356-2.507 1.065a39.95 39.95 0 0 0-3.259 2.382 48.483 48.483 0 0 0-2.946 2.569c-.877.836-1.441 1.378-1.691 1.629-1.254.501-2.466 1.316-3.635 2.444a85.697 85.697 0 0 0-3.385 3.447c-.92 0-1.735.522-2.444 1.566a6.239 6.239 0 0 0-.504.889l-.014.032a6.107 6.107 0 0 0-.33.898c2.149.141 4.294.302 6.434.479a17.399 17.399 0 0 1 1.058-.856c.458-.333.939-.501 1.441-.501 1.169 0 1.858.335 2.068 1.003.039.126.072.268.103.415.025.113.047.232.067.356a412.457 412.457 0 0 1 20.672 2.515c.135-.048.266-.112.402-.153.502-.417 1.211-.313 2.131.313.118.081.207.173.311.26 4.99.766 9.924 1.615 14.797 2.528l.003-.003c.534-.774 1.103-1.417 1.706-1.927l.054-.047c.284-.236.575-.442.874-.619.046-.028.094-.052.141-.079.299-.167.603-.316.917-.426.752-.333 1.378-.229 1.88.313.501.544.896 1.253 1.19 2.131.115.347.206.708.284 1.076.072.317.125.646.173.978l.001.006a489.64 489.64 0 0 1 10.882 2.338z"/></g></svg>